 <svg  version="1.0" xmlns="http://www.w3.org/2000/svg"  width="300.000000pt" height="328.000000pt" viewBox="0 0 300.000000 328.000000"  preserveAspectRatio="xMidYMid meet">  <g transform="translate(0.000000,328.000000) scale(0.100000,-0.100000)" fill="#d7c3b2" stroke="none"> <path d="M1085 2818 c-32 -18 -65 -50 -79 -80 -20 -39 -6 -35 21 7 30 46 76 69 125 62 45 -6 51 8 7 17 -42 8 -50 7 -74 -6z"/> <path d="M1200 2800 c0 -5 4 -10 9 -10 5 0 16 -16 25 -35 22 -45 32 -50 56 -27 23 22 86 43 105 36 7 -3 16 -1 20 5 3 6 17 11 31 11 13 0 24 5 24 10 0 6 -1 10 -2 10 -26 -2 -155 -42 -173 -54 -24 -16 -25 -15 -50 24 -24 38 -45 52 -45 30z"/> <path d="M1518 2803 c-33 -5 -38 -21 -5 -18 12 1 30 3 40 4 9 0 17 6 17 11 0 10 -3 10 -52 3z"/> <path d="M1596 2788 c7 -26 12 -33 18 -27 2 2 7 14 10 27 6 18 4 22 -14 22 -18 0 -20 -4 -14 -22z"/> <path d="M1650 2802 c0 -4 19 -13 43 -20 23 -8 50 -21 60 -29 9 -9 17 -13 17 -10 0 3 21 0 48 -8 56 -17 55 -17 48 -6 -3 5 -22 12 -43 16 -20 4 -55 16 -77 28 -80 40 -96 45 -96 29z"/> <path d="M1897 2723 c-3 -5 19 -30 49 -56 l54 -48 37 28 c21 15 40 28 42 30 2 2 1 6 -2 10 -4 4 -21 -3 -37 -15 -16 -12 -35 -22 -42 -22 -7 0 -31 18 -54 41 -23 22 -44 37 -47 32z"/> <path d="M1040 2685 c-13 -16 -6 -85 9 -85 5 0 12 -11 15 -24 5 -22 33 -42 43 -32 5 4 -26 57 -38 66 -4 3 -6 22 -4 42 4 42 -6 55 -25 33z"/> <path d="M1307 2678 c-36 -58 -67 -122 -67 -137 0 -25 48 38 61 82 7 20 18 37 26 37 7 0 13 6 13 14 0 8 6 17 13 19 6 3 2 6 -10 6 -13 1 -28 -8 -36 -21z"/> <path d="M2095 2690 c-4 -6 13 -10 45 -10 43 0 56 -5 80 -28 35 -35 47 -90 31 -143 -14 -48 -76 -96 -133 -105 -45 -8 -62 -25 -54 -58 10 -40 -38 -174 -82 -228 -11 -13 -18 -14 -31 -6 -13 8 -28 3 -68 -21 -58 -36 -75 -61 -39 -57 26 3 82 42 90 63 3 8 10 11 16 8 13 -8 0 -32 -37 -69 -37 -37 -168 -98 -215 -99 -21 -1 -38 -4 -38 -6 0 -5 50 -71 67 -89 8 -8 20 -26 27 -40 8 -15 23 -36 35 -46 12 -11 21 -25 21 -33 0 -7 5 -13 10 -13 16 0 12 17 -13 47 -48 59 -97 134 -97 148 0 9 9 15 25 15 14 0 25 -4 25 -8 0 -13 101 -84 108 -77 4 4 -2 12 -12 19 -11 6 -38 27 -60 47 l-40 37 35 7 c18 4 39 10 44 14 6 3 2 -2 -8 -12 -11 -10 -17 -20 -13 -24 3 -4 19 6 35 21 l29 28 33 -18 c19 -11 40 -25 47 -31 15 -14 42 -17 42 -5 -1 4 -23 18 -50 31 -33 16 -50 31 -50 43 0 10 4 18 9 18 11 0 87 97 118 151 25 45 43 98 49 146 8 69 13 83 35 83 24 0 113 43 135 65 9 8 16 25 18 38 1 13 5 28 9 34 10 15 0 68 -19 108 -8 18 -30 39 -50 48 -38 19 -99 23 -109 7z"/> <path d="M1122 2658 c-28 -28 -2 -95 31 -82 10 3 24 19 32 34 13 25 12 29 -4 44 -21 19 -42 21 -59 4z"/> <path d="M2037 2572 c-15 -16 -16 -24 -6 -46 14 -30 39 -34 62 -8 13 15 14 22 4 42 -16 32 -39 36 -60 12z"/> <path d="M1180 2545 c-19 -19 -29 -35 -24 -35 12 0 74 53 74 63 0 15 -18 5 -50 -28z"/> <path d="M1057 2502 c24 -21 29 -31 23 -47 -19 -44 -6 -187 21 -237 5 -10 9 -23 9 -30 0 -34 51 -119 84 -140 20 -13 38 -31 41 -40 4 -11 12 -15 23 -11 9 4 -10 -19 -43 -49 -33 -31 -57 -59 -54 -62 3 -3 23 12 44 33 36 35 75 61 89 61 3 0 6 -7 6 -16 0 -11 6 -14 22 -8 22 6 21 5 -5 -29 -15 -20 -27 -39 -27 -44 0 -4 7 1 16 12 12 16 18 18 34 7 11 -6 23 -12 27 -12 5 0 1 5 -7 10 -24 15 11 44 44 36 31 -8 33 -20 7 -32 -32 -15 -166 -136 -190 -172 -24 -36 -25 -63 -1 -70 13 -5 13 -3 2 11 -18 22 2 50 105 147 74 70 78 72 84 49 6 -20 13 -11 11 12 -1 4 10 7 23 7 30 0 32 -9 5 -26 -11 -7 -20 -18 -19 -25 0 -9 2 -9 6 1 2 6 9 12 13 12 5 0 3 -17 -4 -37 -22 -63 -27 -93 -17 -93 6 0 13 16 17 35 3 19 15 44 26 57 16 19 21 20 28 8 14 -21 12 -50 -2 -47 -6 1 -14 -7 -16 -17 -3 -14 0 -17 13 -12 10 3 15 2 13 -5 -2 -6 -7 -10 -12 -9 -15 3 -25 -24 -14 -37 12 -15 38 -17 38 -3 0 6 -5 10 -11 10 -8 0 -8 4 0 14 7 8 13 31 14 50 2 31 5 35 24 31 20 -3 22 1 21 31 -1 30 -4 33 -24 28 -24 -6 -64 11 -64 27 0 6 9 8 21 4 18 -6 20 -4 14 14 -7 24 13 29 33 9 10 -10 17 -10 32 0 16 10 20 10 20 0 1 -15 49 -52 57 -44 3 3 0 12 -7 21 -7 8 -10 21 -7 29 5 14 -48 26 -114 26 -16 0 -32 7 -38 18 -9 16 -11 16 -23 -1 -14 -18 -16 -18 -58 6 -37 20 -47 33 -63 78 -16 48 -17 61 -6 114 10 49 20 67 51 97 22 20 52 42 69 48 16 7 29 16 29 21 0 15 -14 10 -70 -23 -43 -26 -61 -44 -82 -87 -16 -30 -28 -65 -28 -79 0 -13 -6 -30 -14 -37 -12 -12 -17 -11 -36 5 -23 20 -34 24 -57 21 -8 -1 -13 9 -13 24 0 17 -5 25 -12 22 -7 -2 -12 -11 -12 -20 1 -9 -4 -13 -12 -10 -13 5 -23 34 -53 148 -14 50 -14 146 -1 180 9 22 7 27 -15 35 -14 5 -25 14 -25 20 0 5 -8 10 -17 10 -14 0 -10 -7 14 -28z m143 -402 c0 -5 6 -10 14 -10 8 0 22 -10 30 -22 13 -18 16 -19 16 -6 0 11 5 15 15 12 8 -4 15 -13 15 -21 0 -13 3 -13 15 -3 12 10 15 10 15 -2 0 -9 10 -27 21 -42 12 -15 19 -30 16 -33 -7 -7 -123 63 -159 96 -31 28 -35 41 -13 41 8 0 15 -4 15 -10z"/> <path d="M1990 2526 c0 -14 43 -86 52 -86 12 0 10 6 -18 47 -30 44 -34 49 -34 39z"/> <path d="M2198 2511 c-9 -11 -44 -29 -77 -42 -74 -26 -81 -44 -14 -34 34 5 57 16 81 40 19 18 33 38 31 44 -3 7 -11 4 -21 -8z"/> <path d="M1120 2403 c0 -69 10 -134 19 -129 4 3 6 33 5 68 -1 35 -3 75 -3 91 -2 54 -21 26 -21 -30z"/> <path d="M1334 2415 c-8 -20 4 -35 26 -35 23 0 32 13 24 34 -8 20 -43 21 -50 1z"/> <path d="M1774 2415 c-9 -23 4 -47 23 -43 22 4 30 38 11 49 -19 13 -28 11 -34 -6z"/> <path d="M1560 2350 c0 -5 16 -10 35 -10 23 0 41 -7 52 -20 13 -14 19 -16 25 -7 13 20 9 27 -16 27 -14 0 -28 5 -31 10 -3 6 -19 10 -36 10 -16 0 -29 -4 -29 -10z"/> <path d="M1501 2318 c-7 -16 -5 -26 5 -34 7 -6 10 -15 6 -19 -4 -5 -1 -5 6 -1 7 4 21 4 32 1 18 -6 20 -15 20 -80 0 -71 -1 -74 -31 -95 -22 -16 -38 -21 -61 -16 -36 7 -98 43 -98 57 0 6 -5 7 -10 4 -21 -13 43 -62 85 -66 6 0 16 -5 23 -11 13 -12 49 2 84 30 15 12 20 12 43 -6 44 -35 155 -10 155 34 0 12 -7 10 -31 -10 -64 -54 -139 -20 -139 61 0 34 6 46 31 67 17 14 35 26 40 26 5 0 9 7 9 16 0 12 -8 9 -33 -10 -40 -31 -47 -32 -47 -8 0 11 -9 27 -20 37 -11 10 -20 24 -20 32 0 22 -40 15 -49 -9z"/> <path d="M1690 2321 c0 -5 16 -19 35 -32 19 -13 46 -47 61 -77 23 -44 26 -61 21 -105 -6 -45 -12 -57 -50 -92 -23 -22 -52 -45 -62 -51 -33 -19 -9 -27 27 -8 92 47 132 168 85 259 -25 49 -117 132 -117 106z"/> <path d="M1142 2211 c2 -19 9 -37 17 -39 11 -4 12 2 7 24 -11 45 -28 55 -24 15z"/> <path d="M2005 2215 c-5 -11 -17 -32 -27 -47 -10 -14 -18 -32 -18 -40 0 -16 39 32 40 49 0 6 5 13 11 15 6 2 9 13 7 23 -5 20 -5 20 -13 0z"/> <path d="M1370 2171 c0 -12 29 -35 36 -28 11 10 -5 37 -21 37 -8 0 -15 -4 -15 -9z"/> <path d="M1985 2012 c17 -10 53 -27 80 -37 123 -46 185 -114 118 -128 -16 -4 -35 -18 -44 -34 -9 -15 -33 -37 -55 -48 -21 -11 -57 -34 -78 -52 -40 -33 -137 -68 -163 -59 -7 3 -16 -1 -19 -9 -9 -23 -20 -18 -34 15 -7 17 -16 30 -21 30 -13 0 -11 -14 6 -46 14 -27 13 -30 -8 -46 -37 -29 -55 -23 -59 19 -2 20 -9 39 -17 41 -14 5 -13 -9 4 -65 6 -17 3 -23 -8 -23 -9 0 -20 7 -25 16 -6 11 -12 13 -16 6 -3 -6 3 -17 14 -25 19 -13 21 -26 23 -123 2 -108 2 -109 -20 -106 -13 2 -23 -1 -23 -6 0 -14 -79 -45 -122 -47 -44 -3 -42 -7 -23 65 18 65 31 293 15 270 -5 -8 -10 -42 -10 -75 0 -59 -15 -183 -26 -217 -5 -16 -7 -16 -37 2 -18 11 -39 20 -48 20 -17 0 -64 46 -71 70 -3 8 1 28 9 43 8 16 12 31 9 34 -10 10 -38 -69 -32 -91 8 -29 14 -36 66 -76 25 -19 51 -41 59 -48 19 -18 27 -6 10 14 -12 15 -12 17 1 12 8 -2 17 -13 19 -24 4 -22 20 -44 32 -44 5 0 8 5 6 11 -2 10 32 17 106 20 16 1 27 8 27 16 0 8 5 11 10 8 6 -3 10 -1 10 4 0 6 6 11 14 11 43 0 58 78 37 187 -10 50 -4 61 31 61 26 -1 41 8 83 50 25 25 45 28 64 10 10 -11 16 -8 30 11 15 19 23 22 50 16 25 -5 33 -13 38 -36 3 -16 10 -29 16 -29 5 0 7 -12 4 -29 -4 -21 -1 -33 12 -45 18 -17 25 -39 37 -121 4 -29 16 -50 47 -79 37 -36 39 -41 30 -67 -12 -32 -8 -39 22 -39 12 0 25 -3 29 -7 4 -5 11 -8 14 -8 4 -1 33 -16 65 -34 56 -32 66 -51 26 -51 -11 0 -22 -7 -25 -15 -4 -8 -12 -15 -18 -15 -7 0 -28 -14 -46 -30 -19 -17 -45 -33 -57 -37 -13 -3 -28 -14 -34 -25 -9 -17 -8 -19 10 -13 24 7 105 56 174 104 51 34 79 39 157 26 50 -8 58 -25 37 -71 -9 -19 -13 -34 -8 -34 5 0 15 16 21 36 15 45 39 42 63 -8 12 -24 26 -38 37 -38 12 0 21 -10 25 -31 12 -52 13 -84 5 -94 -4 -5 -10 -26 -13 -46 -2 -19 -17 -54 -31 -78 -16 -25 -22 -41 -14 -39 19 6 55 82 68 145 17 81 6 141 -31 161 -16 10 -29 24 -29 33 0 37 -110 89 -187 89 -40 0 -136 39 -153 62 -3 4 -17 11 -30 16 -16 6 -26 18 -27 32 -2 21 1 22 46 16 26 -3 50 -3 54 1 4 3 18 7 31 9 32 3 83 28 120 58 24 20 28 31 29 77 2 81 -19 145 -61 187 -9 10 -35 44 -57 77 -22 33 -44 62 -49 64 -5 2 -27 22 -48 45 -21 23 -38 35 -38 27 0 -8 19 -33 43 -55 24 -23 64 -71 89 -108 25 -36 56 -79 67 -95 25 -34 32 -60 36 -131 2 -48 -1 -55 -28 -78 -41 -35 -88 -57 -97 -47 -5 4 -11 36 -14 71 -7 73 -40 180 -63 202 -14 13 -15 13 -8 -5 45 -121 73 -240 61 -270 -6 -17 -70 -21 -108 -6 -13 5 -43 27 -68 50 -40 36 -44 45 -45 85 0 24 -3 48 -7 52 -4 4 -3 13 3 20 6 7 9 23 6 36 l-4 23 -8 -23 -8 -23 -18 28 c-18 27 -18 28 1 35 18 7 19 10 8 28 -7 11 -18 20 -25 20 -7 0 -13 5 -13 10 0 6 7 10 15 10 8 0 15 7 15 16 0 12 -7 15 -25 12 -14 -3 -25 -1 -25 4 0 17 21 49 28 44 5 -3 14 0 22 6 12 8 12 9 -2 4 -10 -3 -18 -2 -18 3 0 14 39 20 44 7 2 -6 8 -1 12 12 5 16 12 21 25 17 13 -4 19 -1 19 9 0 9 4 16 8 16 5 0 18 8 30 18 11 9 28 22 38 28 25 15 24 78 -2 104 -11 11 -66 40 -123 65 -108 47 -147 58 -96 27z"/> <path d="M1091 1984 c-101 -27 -211 -88 -211 -116 0 -6 10 -2 23 9 30 28 76 51 182 89 94 35 97 43 6 18z"/> <path d="M1577 1874 c-12 -12 44 -104 64 -104 8 0 -43 110 -52 110 -3 0 -8 -3 -12 -6z"/> <path d="M843 1822 c-17 -15 -53 -36 -80 -46 -193 -79 -277 -192 -224 -302 11 -22 23 -52 26 -67 9 -34 25 -45 25 -17 0 30 -30 122 -47 141 -11 13 -11 22 2 53 24 57 84 107 192 161 54 27 100 52 103 55 3 3 14 10 24 16 21 11 34 34 19 34 -4 -1 -22 -13 -40 -28z"/> <path d="M900 1830 c0 -10 9 -24 20 -30 11 -6 20 -17 20 -25 0 -8 4 -15 10 -15 5 0 18 -10 29 -21 15 -17 27 -20 51 -16 43 9 38 -8 -14 -54 -36 -32 -47 -49 -55 -90 -6 -28 -9 -54 -6 -59 2 -4 -2 -33 -10 -64 -8 -31 -15 -65 -15 -76 0 -34 -54 -75 -116 -89 -84 -18 -94 -21 -94 -31 0 -11 49 -3 105 17 22 8 48 15 57 16 18 2 77 74 78 95 0 7 11 29 25 49 25 38 26 55 1 34 -13 -11 -14 -4 -11 50 2 54 6 65 29 82 14 10 26 27 26 37 0 10 14 30 32 45 l31 26 19 -30 c12 -18 37 -36 62 -46 24 -9 53 -30 65 -46 12 -16 36 -36 54 -45 17 -9 36 -22 40 -28 6 -8 10 -7 14 2 2 6 13 12 23 12 10 0 32 11 48 25 17 14 36 24 44 23 9 -2 12 7 10 31 -2 20 0 31 7 27 5 -4 12 -2 15 3 4 5 2 12 -4 16 -6 4 -8 10 -5 15 3 5 1 11 -5 15 -6 3 -13 -2 -16 -12 -25 -76 -61 -123 -95 -123 -26 0 -84 32 -116 64 -14 14 -33 26 -42 26 -19 0 -70 44 -96 83 -13 20 -25 27 -50 27 -52 0 -79 15 -108 59 -29 43 -57 54 -57 21z"/> <path d="M1386 1791 c-30 -46 -31 -51 -13 -51 13 1 53 78 44 87 -3 2 -17 -13 -31 -36z"/> <path d="M837 1704 c-31 -25 -54 -50 -51 -55 3 -6 22 5 42 23 21 18 51 43 67 55 18 13 24 22 15 23 -8 0 -41 -21 -73 -46z"/> <path d="M1257 1691 c-16 -27 -16 -30 0 -42 13 -11 15 -11 9 -1 -4 7 -4 18 2 25 14 18 22 47 14 47 -4 0 -15 -13 -25 -29z"/> <path d="M1580 1716 c0 -2 7 -23 15 -47 14 -40 29 -58 48 -59 14 0 7 21 -10 28 -10 4 -18 12 -19 17 -1 24 -17 65 -25 65 -5 0 -9 -2 -9 -4z"/> <path d="M2180 1655 c0 -12 24 -55 32 -55 11 0 10 4 -4 35 -9 21 -28 35 -28 20z"/> <path d="M1320 1617 c-14 -29 -7 -48 11 -30 6 6 9 21 7 34 l-4 24 -14 -28z"/> <path d="M1970 1597 c0 -13 7 -32 15 -43 13 -17 14 -16 5 15 -5 19 -7 38 -4 42 3 5 0 9 -5 9 -6 0 -11 -10 -11 -23z"/> <path d="M1086 1595 c-16 -12 -18 -19 -8 -39 13 -28 6 -39 -17 -26 -13 6 -17 4 -17 -10 0 -15 3 -17 15 -7 12 10 14 9 7 -8 -5 -14 2 -11 25 13 17 17 36 32 42 32 6 0 8 3 5 6 -4 3 -17 1 -30 -6 -18 -9 -17 -6 7 14 33 28 23 36 -13 10 -12 -8 -22 -11 -22 -5 0 6 12 17 28 25 15 8 20 15 12 15 -8 0 -24 -6 -34 -14z"/> <path d="M701 1531 c-23 -44 -26 -61 -11 -61 6 0 10 5 10 11 0 6 7 26 16 45 24 49 10 54 -15 5z"/> <path d="M1092 1497 c-22 -22 -28 -34 -18 -34 20 0 59 42 54 57 -2 6 -18 -4 -36 -23z"/> <path d="M1599 1493 c-7 -42 -5 -144 2 -149 5 -3 9 0 9 6 0 6 5 8 11 4 8 -5 9 6 3 37 -4 24 -6 56 -6 71 2 23 -16 52 -19 31z"/> <path d="M875 1470 c4 -14 1 -22 -10 -26 -12 -5 -14 -14 -10 -35 4 -19 3 -29 -5 -29 -6 0 -9 4 -6 9 4 5 3 17 0 26 -10 24 -24 -1 -24 -41 0 -28 3 -31 24 -27 18 4 26 13 31 39 3 19 10 34 16 34 5 0 7 12 3 28 -4 22 -3 24 6 12 10 -13 11 -12 6 3 -3 10 -6 21 -6 23 0 2 -7 4 -16 4 -11 0 -14 -6 -9 -20z"/> <path d="M1376 1449 c-18 -45 -17 -53 7 -44 16 7 30 65 17 78 -4 5 -15 -11 -24 -34z"/> <path d="M2100 1420 c-13 -24 -8 -34 53 -92 39 -38 62 -49 55 -25 -3 6 -9 12 -15 12 -18 0 -39 29 -51 72 -15 51 -27 60 -42 33z"/> <path d="M527 1386 c8 -40 93 -122 136 -130 23 -4 37 -3 37 3 0 6 -15 13 -34 16 -41 8 -107 70 -120 113 -10 30 -24 28 -19 -2z"/> <path d="M794 1389 c-3 -6 -26 -20 -50 -30 -47 -21 -60 -34 -44 -44 17 -10 70 5 70 21 0 15 21 15 32 -1 4 -5 8 7 8 28 0 38 -4 45 -16 26z"/> <path d="M2036 1375 c4 -16 7 -39 6 -50 -1 -16 1 -17 8 -5 10 16 3 59 -12 75 -6 6 -7 -1 -2 -20z"/> <path d="M667 1373 c-11 -10 -8 -83 3 -83 6 0 10 20 10 45 0 46 -2 50 -13 38z"/> <path d="M1113 1335 c-13 -19 -20 -41 -17 -50 5 -13 11 -9 26 16 14 23 22 29 28 20 5 -9 10 -10 14 -2 4 6 2 11 -4 11 -6 0 -10 7 -8 16 5 31 -17 24 -39 -11z"/> <path d="M1156 1293 c-4 -5 -13 -8 -19 -8 -16 0 -15 -27 0 -32 6 -2 17 5 23 17 12 22 9 36 -4 23z"/> <path d="M2077 1276 c-9 -24 -9 -28 2 -22 5 4 11 1 13 -5 2 -7 10 -10 17 -8 9 3 8 11 -6 28 -18 22 -20 22 -26 7z"/> <path d="M1163 1262 c-7 -11 -8 -24 -2 -33 7 -11 11 -10 22 6 14 18 13 45 -2 45 -3 0 -11 -8 -18 -18z"/> <path d="M870 1261 c0 -6 5 -13 10 -16 6 -3 10 -15 10 -26 0 -15 7 -19 35 -19 39 0 48 17 13 22 -13 2 -27 13 -33 26 -10 22 -35 31 -35 13z"/> <path d="M970 1210 c0 -5 15 -10 33 -10 38 0 125 -55 155 -97 52 -76 86 -157 86 -205 -1 -49 9 -64 19 -28 3 12 11 18 19 15 24 -10 9 52 -21 84 -14 16 -39 55 -55 86 -42 82 -147 165 -208 165 -16 0 -28 -4 -28 -10z"/> <path d="M1510 1130 c-3 -52 -3 -131 0 -175 l6 -80 4 115 c3 63 3 142 0 175 -6 57 -6 56 -10 -35z"/> <path d="M828 1198 c-43 -15 -33 -27 12 -16 22 6 37 14 34 19 -6 11 -11 10 -46 -3z"/> <path d="M1982 1183 c-35 -18 -66 -45 -93 -80 -41 -55 -74 -121 -65 -130 3 -3 12 11 20 32 37 87 126 168 214 195 l27 8 -25 1 c-14 1 -49 -11 -78 -26z"/> <path d="M2082 1182 c-13 -9 -6 -42 8 -42 15 0 21 18 8 23 -7 3 -3 6 10 6 23 1 28 -9 12 -25 -6 -6 -3 -10 9 -10 11 0 18 3 15 7 -2 4 5 5 16 2 31 -8 23 14 -12 31 -35 18 -47 19 -66 8z"/> <path d="M583 1160 c-13 -5 -23 -14 -23 -20 0 -13 17 -13 22 0 6 18 90 20 136 5 24 -9 67 -33 96 -55 29 -22 58 -40 64 -40 6 0 28 -18 49 -41 21 -23 48 -52 60 -65 12 -13 26 -32 32 -41 5 -10 13 -15 17 -11 4 4 -5 22 -20 40 -14 18 -41 54 -59 80 -28 41 -54 58 -92 62 -5 1 -9 8 -8 16 3 17 -34 38 -113 63 -56 18 -126 21 -161 7z"/> <path d="M870 1135 c0 -11 7 -15 23 -13 12 2 22 8 22 13 0 6 -10 11 -22 13 -16 2 -23 -2 -23 -13z"/> <path d="M2170 1130 c-8 -5 -12 -12 -8 -15 9 -9 48 4 48 16 0 12 -21 11 -40 -1z"/> <path d="M477 1112 c-27 -12 -43 -29 -59 -62 -12 -25 -23 -52 -24 -60 -11 -77 -12 -110 -5 -114 4 -3 11 -26 14 -51 4 -27 20 -64 42 -95 19 -27 35 -54 35 -60 0 -13 77 -124 101 -146 10 -9 22 -14 26 -10 5 4 0 12 -10 17 -19 11 -47 70 -48 103 0 20 -1 21 -9 1 -7 -16 -9 -12 -10 20 -2 32 -3 35 -9 16 -5 -19 -8 -21 -17 -10 -21 28 -36 79 -30 104 4 14 2 25 -4 25 -5 0 -10 -7 -10 -16 0 -25 -25 -10 -28 17 -2 13 -8 28 -13 34 -5 5 -9 21 -9 36 0 15 -5 31 -10 34 -6 4 -7 12 -3 18 4 6 8 29 9 50 3 51 28 98 68 125 42 29 56 28 56 -3 0 -14 4 -25 8 -25 5 0 8 16 8 35 -1 40 -10 42 -69 17z"/> <path d="M999 1108 c-8 -31 -8 -98 1 -103 8 -5 10 6 7 39 -2 25 0 46 5 46 4 0 8 5 8 10 0 8 -19 15 -21 8z"/> <path d="M2203 1093 c-3 -10 -8 -22 -11 -28 -3 -5 4 -2 15 8 11 9 27 17 36 17 9 0 19 5 22 10 4 6 -7 10 -25 10 -20 0 -33 -6 -37 -17z"/> <path d="M2353 1065 c-35 -15 -44 -35 -17 -35 9 0 32 7 51 16 25 12 31 19 21 25 -17 11 -17 11 -55 -6z"/> <path d="M590 1049 c0 -5 4 -8 9 -5 5 4 21 2 36 -4 15 -6 32 -7 38 -3 7 4 3 9 -9 14 -29 11 -74 10 -74 -2z"/> <path d="M695 1040 c-3 -5 9 -16 26 -24 37 -19 39 -19 39 -7 0 13 -59 41 -65 31z"/> <path d="M1900 1046 c0 -11 64 -96 72 -96 11 0 10 6 -4 22 -7 8 -20 27 -28 43 -13 25 -40 46 -40 31z"/> <path d="M510 994 c-24 -34 -30 -48 -20 -54 7 -4 10 -12 7 -17 -3 -5 4 -47 15 -94 21 -82 42 -129 58 -129 5 0 22 -13 38 -30 17 -16 37 -30 45 -30 9 0 26 -12 39 -28 37 -43 137 -82 165 -64 8 5 -10 13 -47 20 -33 7 -60 17 -60 22 0 6 -6 10 -12 10 -7 0 -24 12 -37 25 -13 14 -29 25 -35 25 -21 0 -116 98 -116 119 0 11 -4 22 -8 25 -14 8 -32 108 -28 150 2 23 13 49 25 62 22 23 26 34 13 34 -5 0 -23 -21 -42 -46z"/> <path d="M770 1003 c0 -13 41 -54 83 -83 39 -27 103 -152 112 -221 5 -40 2 -50 -25 -87 -16 -23 -33 -42 -38 -42 -7 0 -67 67 -137 155 -44 54 -117 163 -155 232 -13 24 -26 41 -28 38 -3 -2 12 -32 32 -65 20 -34 36 -63 36 -66 0 -10 98 -145 149 -204 77 -89 154 -161 186 -174 12 -5 15 -10 8 -13 -7 -2 -23 3 -35 11 -32 23 -45 20 -17 -4 21 -17 21 -19 4 -14 -11 4 -26 14 -32 22 -7 9 -15 14 -17 11 -2 -2 6 -17 19 -32 18 -24 26 -27 41 -19 11 6 33 16 51 22 18 7 38 18 44 26 9 12 6 13 -20 8 -24 -5 -40 0 -71 20 -22 14 -40 29 -40 32 0 4 14 22 30 41 47 53 44 114 -10 230 -25 54 -47 87 -66 99 -16 10 -46 33 -66 53 -21 19 -38 30 -38 24z"/> <path d="M1850 950 c0 -18 -4 -29 -10 -25 -5 3 -10 -1 -10 -10 0 -11 5 -15 16 -11 12 4 14 1 9 -14 -5 -16 -3 -19 12 -14 17 6 17 6 -1 -8 -18 -14 -18 -16 -1 -49 26 -51 65 -101 77 -97 6 2 16 21 23 41 10 29 10 43 1 62 -6 14 -14 25 -18 25 -5 0 -8 7 -8 15 0 8 -7 15 -15 15 -9 0 -20 11 -25 25 -5 14 -15 24 -22 23 -12 -3 -13 1 -5 33 1 6 -4 14 -10 16 -9 3 -13 -6 -13 -27z m92 -116 c10 -10 -4 -44 -16 -38 -6 3 -3 -1 7 -9 12 -10 15 -17 7 -22 -15 -9 -22 -1 -24 29 -1 19 -7 26 -21 27 -20 0 -20 0 0 9 24 10 40 12 47 4z"/> <path d="M2345 968 c-37 -12 -137 -79 -143 -96 -6 -20 12 -14 45 16 17 15 48 37 70 49 47 25 143 42 143 24 0 -6 6 -11 13 -11 17 0 44 -30 45 -50 1 -8 3 -33 6 -54 3 -29 -1 -51 -18 -82 -32 -60 -104 -146 -149 -179 -44 -31 -43 -44 2 -21 30 16 119 120 159 187 38 62 31 153 -13 199 -25 26 -36 30 -79 29 -28 -1 -65 -5 -81 -11z"/> <path d="M1766 931 c-18 -20 -18 -21 -1 -21 15 0 16 -3 7 -12 -20 -20 -15 -40 10 -33 17 6 20 4 15 -10 -4 -9 -7 -21 -7 -26 0 -5 -7 -9 -15 -9 -8 0 -15 -4 -15 -9 0 -5 11 -8 25 -7 14 0 25 5 25 10 0 4 7 6 15 2 8 -3 15 -1 15 4 0 6 -4 10 -9 10 -5 0 -11 18 -15 40 -3 22 -10 40 -15 40 -5 0 -11 10 -13 21 l-3 21 -19 -21z"/> <path d="M2083 943 c-7 -3 -13 -10 -13 -18 0 -7 -7 -18 -15 -25 -8 -7 -20 -30 -25 -51 -6 -22 -15 -39 -20 -39 -6 0 -10 -6 -10 -13 0 -8 -7 -29 -16 -47 -9 -18 -22 -53 -28 -79 l-12 -46 -42 62 c-23 34 -42 68 -42 76 0 8 -7 20 -15 27 -11 9 -19 8 -37 -5 l-23 -16 26 6 c22 6 27 3 33 -19 3 -14 31 -59 61 -102 30 -42 55 -84 55 -94 0 -23 38 -70 56 -70 8 0 17 -7 20 -15 4 -8 10 -15 15 -15 4 0 6 7 3 15 -4 8 -1 15 5 15 7 0 17 5 24 10 7 6 21 18 32 26 20 16 20 16 0 8 -43 -15 -59 -10 -68 24 -6 17 -14 32 -20 32 -13 0 0 -62 15 -71 9 -6 7 -10 -5 -15 -26 -10 -53 24 -66 84 -7 35 -7 60 -1 78 6 14 8 30 4 35 -3 5 0 9 5 9 6 0 11 7 11 16 0 8 14 35 30 59 17 24 30 48 29 52 -3 13 21 66 38 86 17 19 15 27 -4 20z"/> <path d="M1184 925 c3 -9 0 -15 -9 -15 -9 0 -15 -9 -15 -22 0 -12 -3 -18 -7 -14 -4 3 -15 -10 -25 -30 -16 -34 -14 -57 7 -82 8 -9 55 33 55 49 0 10 4 21 10 24 5 3 14 24 20 47 9 32 9 43 -2 49 -21 14 -41 10 -34 -6z"/> <path d="M2597 912 c-21 -23 -21 -32 -3 -32 7 0 16 10 19 22 8 29 4 32 -16 10z"/> <path d="M1728 884 c-9 -13 1 -82 12 -89 4 -3 11 7 15 22 3 14 2 29 -3 32 -5 3 -11 15 -14 26 -2 12 -6 16 -10 9z"/> <path d="M1030 875 c0 -3 10 -20 22 -38 13 -18 24 -34 25 -36 2 -2 5 -2 8 1 8 8 -28 71 -43 76 -7 2 -12 1 -12 -3z"/> <path d="M2355 797 c-57 -71 -212 -223 -220 -215 -12 11 -17 128 -7 141 7 8 7 18 2 27 -16 26 -24 0 -24 -81 0 -106 12 -118 119 -126 58 -5 76 -3 71 5 -4 7 -34 12 -72 12 -35 0 -64 4 -64 9 0 5 28 36 63 68 95 88 157 155 174 186 24 48 10 39 -42 -26z"/> <path d="M1685 820 c-20 -39 -19 -45 5 -43 40 2 42 3 35 21 -4 9 -7 25 -7 35 1 27 -16 20 -33 -13z"/> <path d="M2147 814 c-10 -20 -15 -39 -11 -43 4 -3 9 0 12 8 2 7 13 22 23 32 22 22 25 39 7 39 -7 0 -21 -17 -31 -36z"/> <path d="M2591 824 c-24 -30 -24 -33 -11 -54 7 -12 11 -10 18 10 28 76 26 87 -7 44z"/> <path d="M1219 798 c-10 -18 -9 -20 6 -14 12 4 25 -2 41 -21 23 -27 84 -42 84 -22 0 5 -9 9 -21 9 -13 0 -18 4 -13 12 5 7 1 9 -13 6 -15 -4 -25 2 -37 23 -20 35 -31 36 -47 7z"/> <path d="M1083 777 c4 -10 7 -23 7 -28 0 -6 4 -8 8 -5 12 7 6 -104 -7 -138 -6 -16 -9 -31 -6 -35 8 -8 25 20 25 42 0 9 4 17 9 17 5 0 6 21 3 46 -3 29 -1 49 7 53 7 5 0 17 -21 37 -22 20 -29 24 -25 11z"/> <path d="M1211 765 c-1 -5 -19 -30 -41 -55 -41 -46 -45 -60 -13 -40 25 16 65 79 59 93 -2 7 -5 8 -5 2z"/> <path d="M1040 751 c0 -5 9 -19 21 -32 16 -19 19 -20 15 -6 -3 10 -6 22 -6 27 0 4 -7 10 -15 14 -8 3 -15 2 -15 -3z"/> <path d="M1360 740 c0 -5 3 -10 8 -11 48 -7 83 -6 76 0 -15 14 -84 23 -84 11z"/> <path d="M1586 735 c-26 -7 -53 -12 -60 -10 -6 2 -24 6 -41 10 -24 5 -27 4 -18 -6 11 -11 51 -21 78 -20 36 2 135 25 135 32 0 12 -36 10 -94 -6z"/> <path d="M2513 674 c-13 -14 -23 -36 -23 -49 0 -13 -5 -27 -10 -30 -6 -4 -8 -15 -5 -25 9 -28 -93 -113 -163 -135 -22 -6 -23 -5 -17 17 5 18 4 20 -4 8 -7 -10 -11 -11 -11 -2 0 6 -5 12 -11 12 -6 0 -9 -7 -6 -14 4 -11 1 -13 -11 -9 -12 4 -14 3 -7 -5 6 -5 19 -12 30 -15 11 -3 -1 -5 -28 -4 -28 1 -46 -2 -44 -8 4 -11 64 -14 87 -5 80 34 140 68 163 94 72 78 83 92 90 109 11 28 -7 19 -26 -13 -10 -16 -22 -30 -26 -30 -10 0 12 69 25 79 5 3 18 16 28 29 14 16 16 22 5 22 -8 0 -24 -12 -36 -26z"/> <path d="M645 543 c5 -18 2 -23 -12 -23 -16 -1 -15 -3 6 -20 13 -11 31 -20 40 -20 10 0 21 -3 24 -7 4 -3 24 -8 45 -10 20 -2 59 -10 86 -18 32 -10 54 -11 65 -5 13 8 13 9 -6 10 -30 0 -32 1 -71 17 -18 7 -37 11 -42 8 -5 -3 -24 10 -41 30 -18 20 -34 33 -37 30 -3 -3 5 -16 18 -30 19 -21 21 -25 7 -25 -9 0 -17 6 -17 13 0 8 -9 22 -20 32 -11 10 -20 14 -20 10 0 -5 -7 0 -16 11 -15 18 -15 18 -9 -3z"/> <path d="M2150 487 c0 -15 29 -57 30 -42 0 6 -3 20 -6 33 -7 24 -24 31 -24 9z"/> <path d="M2180 492 c0 -16 38 -58 46 -50 4 4 -5 20 -19 34 -15 15 -27 22 -27 16z"/> <path d="M2070 473 c0 -10 34 -32 49 -33 10 0 11 3 2 14 -12 14 -51 29 -51 19z"/> </g> </svg> 