<?xml version="1.0" standalone="no"?>
<!DOCTYPE svg PUBLIC "-//W3C//DTD SVG 20010904//EN"
 "http://www.w3.org/TR/2001/REC-SVG-20010904/DTD/svg10.dtd">
<svg version="1.0" xmlns="http://www.w3.org/2000/svg"
 width="300.000000pt" height="328.000000pt" viewBox="0 0 300.000000 328.000000"
 preserveAspectRatio="xMidYMid meet">
<metadata>
Created by potrace 1.10, written by Peter Selinger 2001-2011
</metadata>
<g transform="translate(0.000000,328.000000) scale(0.100000,-0.100000)"
fill="#000000" stroke="none">
<path d="M1070 2808 c-32 -22 -88 -98 -73 -98 5 0 18 16 30 35 30 46 76 69
125 62 45 -6 51 8 7 17 -47 9 -53 8 -89 -16z"/>
<path d="M1200 2800 c0 -5 4 -10 8 -10 5 0 15 -12 22 -27 26 -52 30 -54 59
-34 35 24 88 41 106 35 8 -4 15 -1 15 5 0 6 14 11 30 11 17 0 30 5 30 10 0 6
-1 10 -2 10 -27 -2 -156 -43 -175 -56 -15 -9 -28 -13 -30 -8 -15 44 -63 93
-63 64z"/>
<path d="M1540 2800 c0 -5 7 -10 15 -10 8 0 15 5 15 10 0 6 -7 10 -15 10 -8 0
-15 -4 -15 -10z"/>
<path d="M1596 2785 c11 -35 17 -35 28 2 6 18 3 22 -14 20 -15 -1 -19 -6 -14
-22z"/>
<path d="M1650 2802 c0 -5 19 -15 43 -21 23 -7 47 -17 52 -21 6 -4 29 -13 53
-20 24 -6 50 -14 59 -17 10 -4 14 -2 10 4 -4 6 -23 14 -44 18 -20 4 -55 16
-77 28 -81 41 -96 45 -96 29z"/>
<path d="M1490 2792 c0 -4 9 -8 20 -9 11 -1 20 2 20 8 0 5 -9 9 -20 9 -11 0
-20 -4 -20 -8z"/>
<path d="M1370 2710 c0 -13 11 -13 30 0 12 8 11 10 -7 10 -13 0 -23 -4 -23
-10z"/>
<path d="M1940 2672 l54 -49 43 26 c24 14 43 29 43 33 0 14 -15 9 -50 -17
l-34 -25 -30 27 c-17 16 -34 34 -39 41 -4 6 -15 12 -24 12 -10 0 4 -19 37 -48z"/>
<path d="M992 2670 c0 -19 2 -27 5 -17 2 9 2 25 0 35 -3 9 -5 1 -5 -18z"/>
<path d="M1046 2693 c-10 -10 -7 -93 4 -93 6 0 11 8 11 18 6 74 2 92 -15 75z"/>
<path d="M1312 2685 c-4 -5 -17 -30 -29 -55 -13 -25 -32 -59 -42 -77 -13 -20
-15 -30 -7 -27 19 7 56 60 71 102 7 20 18 36 24 35 6 -2 11 3 11 11 0 8 6 16
13 19 6 3 2 4 -11 4 -13 -1 -26 -6 -30 -12z"/>
<path d="M2095 2690 c-4 -6 13 -10 43 -10 84 0 132 -62 118 -153 -10 -64 -46
-91 -168 -131 -13 -4 -18 -16 -18 -39 0 -78 -48 -191 -114 -272 -56 -67 -73
-81 -133 -107 -29 -12 -53 -25 -53 -30 0 -11 5 -10 47 7 45 19 77 19 93 0 7
-8 17 -15 22 -15 5 0 16 -7 24 -15 16 -16 44 -21 44 -7 -1 4 -23 18 -50 31
-51 25 -70 48 -46 57 36 14 150 187 160 244 2 14 5 27 6 30 5 12 7 28 8 63 1
21 8 39 15 41 76 22 103 35 138 67 26 24 39 44 36 53 -4 9 -2 18 3 21 11 7 3
74 -11 92 -6 7 -8 13 -4 13 14 0 -29 41 -57 56 -31 16 -94 19 -103 4z"/>
<path d="M1122 2658 c-16 -16 -15 -50 1 -72 11 -15 17 -17 35 -7 27 14 39 56
22 76 -15 18 -42 19 -58 3z m38 -38 c0 -5 -4 -10 -10 -10 -5 0 -10 5 -10 10 0
6 5 10 10 10 6 0 10 -4 10 -10z"/>
<path d="M1001 2614 c0 -11 3 -14 6 -6 3 7 2 16 -1 19 -3 4 -6 -2 -5 -13z"/>
<path d="M1066 2602 c-10 -17 2 -49 21 -56 23 -9 29 1 11 21 -9 10 -17 25 -20
33 -3 10 -6 11 -12 2z"/>
<path d="M1226 2602 c-4 -7 -5 -12 -2 -12 3 0 -14 -18 -37 -40 -23 -22 -37
-40 -32 -40 18 0 88 77 83 91 -3 10 -6 10 -12 1z"/>
<path d="M1000 2580 c0 -5 5 -10 10 -10 6 0 10 5 10 10 0 6 -4 10 -10 10 -5 0
-10 -4 -10 -10z"/>
<path d="M2036 2571 c-33 -36 17 -94 52 -59 24 24 8 78 -23 78 -7 0 -20 -8
-29 -19z"/>
<path d="M1010 2552 c0 -4 18 -23 39 -42 22 -18 38 -37 35 -42 -20 -32 -8
-218 16 -253 4 -5 10 -22 13 -36 12 -48 58 -118 93 -139 19 -12 34 -28 34 -36
0 -8 6 -11 18 -7 9 3 -10 -19 -43 -50 -33 -30 -57 -58 -54 -61 3 -3 25 14 50
38 24 25 58 48 74 52 27 6 28 5 17 -8 -9 -11 -10 -18 -2 -23 5 -3 10 -1 10 4
0 6 10 11 21 11 20 0 19 -2 -10 -30 -17 -17 -31 -36 -31 -43 0 -6 7 -3 16 8
12 16 18 18 34 7 10 -6 27 -9 37 -5 10 4 -26 -36 -79 -88 -99 -96 -114 -123
-83 -149 17 -14 21 0 4 17 -16 16 15 56 109 143 65 61 77 68 80 51 3 -20 3
-20 25 -1 19 19 37 26 37 15 0 -2 -17 -21 -38 -42 -35 -36 -72 -86 -72 -98 0
-3 7 -5 15 -5 8 0 15 5 15 11 0 16 53 99 62 99 4 0 2 -17 -6 -37 -21 -56 -28
-93 -17 -93 6 0 13 16 17 35 3 19 15 44 26 57 16 19 21 20 29 8 11 -18 8 -91
-5 -89 -5 0 -12 -5 -17 -12 -9 -15 7 -39 27 -39 17 0 18 17 2 23 -10 4 -10 7
0 15 7 5 14 25 15 45 2 32 5 36 24 32 20 -3 22 1 21 31 -1 29 -4 33 -21 28
-20 -6 -67 13 -67 28 0 5 9 7 19 3 11 -3 22 -1 26 5 3 5 1 10 -4 10 -6 0 -11
5 -11 10 0 14 37 12 43 -2 3 -10 9 -10 26 0 17 10 21 10 21 0 1 -16 49 -52 57
-44 4 3 -2 14 -11 25 -13 15 -14 20 -4 24 25 9 1 17 -71 23 -47 5 -75 12 -78
21 -3 7 -9 13 -15 13 -5 0 -7 -4 -4 -9 13 -21 -27 -19 -67 3 -33 19 -45 34
-58 70 -8 25 -18 48 -21 51 -3 3 1 34 10 68 17 70 44 104 108 139 24 12 44 26
44 30 0 15 -18 8 -74 -29 -61 -40 -106 -111 -106 -165 0 -15 -4 -28 -10 -28
-14 0 -13 -67 2 -76 8 -5 9 -2 5 9 -3 9 -2 19 3 22 6 4 10 0 10 -8 0 -8 10
-26 21 -41 12 -15 19 -29 16 -32 -6 -6 -130 67 -164 96 -13 11 -23 26 -23 34
0 8 -7 22 -16 31 -43 43 -79 264 -54 330 8 21 7 27 -8 32 -9 3 -29 19 -44 35
-27 28 -38 34 -38 20z m414 -621 c26 -10 6 -23 -40 -27 -36 -2 -42 4 -22 24
13 13 33 14 62 3z m66 -21 c0 -5 -5 -10 -11 -10 -5 0 -7 5 -4 10 3 6 8 10 11
10 2 0 4 -4 4 -10z m-50 -20 c0 -5 -5 -10 -11 -10 -5 0 -7 5 -4 10 3 6 8 10
11 10 2 0 4 -4 4 -10z"/>
<path d="M1595 2520 c3 -5 8 -10 11 -10 2 0 4 5 4 10 0 6 -5 10 -11 10 -5 0
-7 -4 -4 -10z"/>
<path d="M1990 2524 c0 -14 44 -84 53 -84 5 0 7 3 5 8 -25 52 -43 82 -50 82
-4 0 -8 -3 -8 -6z"/>
<path d="M2200 2512 c0 -10 -54 -37 -102 -52 -55 -17 -49 -34 9 -25 34 5 56
16 80 40 34 34 40 45 23 45 -5 0 -10 -3 -10 -8z"/>
<path d="M1590 2464 c0 -8 5 -12 10 -9 6 3 10 10 10 16 0 5 -4 9 -10 9 -5 0
-10 -7 -10 -16z"/>
<path d="M1120 2406 c0 -70 11 -150 19 -137 4 6 6 39 4 73 -1 35 -2 75 -3 91
0 15 -4 27 -10 27 -5 0 -10 -24 -10 -54z"/>
<path d="M1334 2415 c-8 -20 4 -35 26 -35 23 0 32 13 24 34 -8 20 -43 21 -50
1z"/>
<path d="M1783 2423 c-15 -5 -17 -39 -4 -47 16 -10 41 5 41 24 0 19 -17 30
-37 23z"/>
<path d="M1560 2348 c0 -4 16 -8 35 -8 21 0 43 -8 54 -19 17 -17 20 -17 25 -4
9 22 8 23 -18 23 -14 0 -27 4 -31 9 -7 12 -65 11 -65 -1z"/>
<path d="M1503 2323 c-3 -10 -8 -21 -10 -26 -2 -4 17 -17 44 -28 26 -12 42
-24 35 -26 -6 -3 -9 -10 -5 -16 4 -6 6 -34 4 -61 -1 -40 -7 -56 -27 -73 -14
-13 -35 -23 -46 -23 -29 0 -108 39 -115 56 -3 8 -9 11 -15 8 -15 -9 27 -43 75
-60 51 -18 97 -11 125 19 18 20 22 36 24 101 1 71 -1 79 -26 105 -14 15 -23
30 -19 34 3 4 -4 7 -16 7 -12 0 -24 -8 -28 -17z"/>
<path d="M1690 2321 c0 -5 15 -19 33 -30 21 -12 44 -42 62 -76 24 -49 27 -63
21 -111 -5 -47 -12 -61 -44 -91 -20 -19 -47 -39 -59 -44 -13 -5 -23 -13 -23
-19 0 -13 1 -13 41 7 74 37 117 121 103 201 -8 48 -57 122 -100 150 -19 12
-34 18 -34 13z"/>
<path d="M1630 2259 c-19 -15 -30 -29 -25 -29 14 0 71 47 65 53 -3 3 -21 -8
-40 -24z"/>
<path d="M1500 2266 c0 -2 7 -7 16 -10 8 -3 12 -2 9 4 -6 10 -25 14 -25 6z"/>
<path d="M1999 2208 c-12 -24 -27 -53 -33 -65 -6 -13 -17 -23 -24 -23 -24 0
-122 -70 -122 -87 0 -15 2 -15 16 3 13 16 15 16 10 2 -8 -25 5 -22 36 7 15 14
31 25 36 25 5 0 12 10 15 22 4 12 9 19 13 15 8 -7 54 55 54 72 0 6 4 11 9 11
5 0 11 14 13 30 3 17 3 30 2 30 -2 0 -13 -19 -25 -42z"/>
<path d="M1142 2211 c2 -19 9 -37 17 -39 11 -4 12 2 7 24 -11 45 -28 55 -24
15z"/>
<path d="M1370 2172 c0 -5 9 -17 21 -28 21 -19 21 -19 18 6 -4 23 -39 43 -39
22z"/>
<path d="M1167 2163 c-10 -10 -8 -25 2 -19 5 3 8 -2 7 -11 0 -9 4 -18 10 -20
7 -2 9 8 6 27 -4 29 -12 37 -25 23z"/>
<path d="M1206 2114 c-9 -23 -8 -27 9 -20 9 3 15 0 15 -8 0 -7 7 -19 15 -26
13 -10 15 -9 15 11 0 20 2 21 11 9 9 -13 10 -13 6 0 -2 8 -17 23 -34 33 -28
16 -31 16 -37 1z"/>
<path d="M1727 2105 c-33 -29 -87 -33 -112 -9 -9 9 -19 13 -23 9 -4 -4 3 -15
15 -25 39 -31 153 -5 153 36 0 18 0 18 -33 -11z"/>
<path d="M1372 2046 c1 -10 8 -17 13 -17 15 1 12 24 -3 29 -9 3 -13 -2 -10
-12z"/>
<path d="M1985 2012 c17 -10 53 -27 80 -37 124 -46 186 -114 116 -128 -17 -4
-32 -14 -36 -26 -5 -17 -85 -81 -102 -81 -11 0 -68 -54 -65 -62 1 -5 -2 -7 -7
-4 -5 4 -31 -1 -57 -10 -25 -8 -55 -13 -66 -11 -11 3 -21 0 -25 -9 -8 -22 -19
-17 -33 16 -7 17 -16 30 -21 30 -13 0 -11 -13 7 -49 9 -18 14 -33 13 -34 -2
-1 -14 -8 -26 -14 -39 -22 -53 -16 -53 21 0 19 -5 38 -11 41 -19 12 -23 -5
-10 -41 16 -44 1 -67 -22 -34 -8 12 -18 17 -21 11 -4 -5 3 -16 14 -24 19 -13
21 -26 23 -123 2 -108 2 -109 -20 -107 -13 2 -23 -1 -23 -5 0 -15 -74 -44
-118 -47 l-43 -3 7 31 c22 99 33 181 33 257 0 105 -15 60 -22 -70 -4 -58 -13
-125 -21 -150 -8 -25 -14 -40 -15 -34 -1 6 -20 17 -43 24 -55 18 -95 47 -102
73 -3 12 -8 18 -12 15 -8 -8 4 -44 20 -60 7 -7 27 -24 45 -38 18 -14 44 -35
57 -48 25 -24 35 -8 12 17 -11 11 -10 13 2 9 8 -3 17 -13 19 -24 4 -24 20 -44
35 -44 6 0 5 4 -3 9 -19 12 -2 20 37 16 17 -1 32 2 32 8 0 6 3 7 6 4 4 -3 15
-2 25 4 13 6 19 6 19 -1 0 -5 5 -10 11 -10 6 0 8 7 5 16 -5 12 -1 14 17 9 17
-5 19 -4 7 4 -8 6 -13 11 -10 12 3 0 16 2 28 3 13 2 28 9 33 17 11 17 11 110
0 167 -7 34 -5 46 7 59 10 10 17 12 20 5 5 -17 34 -2 72 37 24 25 42 35 58 33
12 -2 22 -8 22 -13 0 -5 7 -9 16 -9 10 0 13 6 9 19 -8 25 21 32 63 14 24 -10
32 -19 32 -38 0 -14 5 -25 11 -25 7 0 9 -11 6 -29 -4 -21 -1 -34 13 -46 11
-10 20 -28 20 -40 0 -12 3 -25 7 -29 4 -4 9 -26 10 -49 3 -35 10 -48 53 -88
49 -46 61 -71 38 -85 -8 -5 -9 0 -6 14 4 12 2 22 -3 22 -5 0 -9 -4 -9 -9 0 -5
-3 -16 -6 -25 -5 -12 1 -16 23 -16 16 0 34 -5 41 -12 7 -7 12 -9 12 -6 0 4 26
-9 57 -28 31 -19 61 -34 66 -34 4 0 5 -4 2 -10 -3 -5 -15 -10 -25 -10 -10 0
-31 -11 -46 -25 -15 -14 -32 -25 -38 -25 -6 0 -19 -8 -28 -18 -27 -28 -43 -39
-53 -35 -6 2 -16 -6 -23 -18 -12 -19 -11 -20 8 -14 20 6 118 63 130 75 3 3 25
18 49 34 36 23 55 28 97 27 64 -1 104 -15 104 -36 0 -9 -7 -29 -15 -45 -9 -17
-11 -30 -6 -30 6 0 16 18 22 40 7 22 15 40 19 40 12 0 38 -34 49 -63 7 -16 18
-27 30 -27 14 0 21 -9 26 -31 12 -52 13 -84 5 -94 -4 -5 -10 -26 -13 -45 -2
-19 -23 -66 -46 -104 -23 -37 -36 -66 -29 -64 6 2 20 18 30 34 85 137 102 290
36 322 -14 6 -29 23 -32 36 -9 35 -114 86 -177 86 -35 0 -65 9 -110 33 -99 52
-102 55 -106 78 -3 21 -1 21 43 15 26 -3 52 -2 58 3 6 4 28 11 48 14 49 7 125
62 131 94 11 61 -19 193 -44 193 -5 0 -9 7 -9 15 0 8 -4 15 -8 15 -5 0 -30 32
-56 70 -27 39 -54 74 -61 78 -7 4 -27 24 -44 46 -20 25 -31 33 -31 22 0 -9 23
-39 50 -66 28 -27 64 -72 81 -100 17 -27 35 -50 40 -50 5 0 9 -7 9 -15 0 -8 4
-15 8 -15 10 0 34 -46 39 -75 2 -11 5 -45 7 -76 l4 -56 -55 -37 c-31 -20 -62
-36 -69 -36 -12 0 -20 41 -15 73 5 33 -61 228 -74 215 -2 -1 10 -42 26 -89 16
-47 30 -112 31 -143 3 -51 0 -59 -17 -65 -39 -14 -100 8 -150 54 -45 41 -49
48 -50 90 0 28 -5 49 -14 54 -11 7 -10 10 4 18 11 7 15 18 12 34 l-4 24 -8
-22 -7 -23 -19 24 c-23 29 -24 36 -5 36 7 0 16 9 19 20 3 11 1 18 -4 14 -5 -3
-9 0 -9 5 0 6 -7 11 -15 11 -8 0 -15 5 -15 10 0 6 7 10 15 10 8 0 15 7 15 16
0 12 -7 15 -25 12 -14 -3 -25 -1 -25 4 0 17 21 49 28 44 5 -3 14 0 22 6 12 8
12 9 -2 4 -10 -3 -18 -1 -18 4 0 6 4 10 9 10 5 0 17 3 27 7 12 4 15 3 10 -5
-4 -7 -3 -12 3 -12 5 0 11 12 13 27 l3 26 44 -44 c43 -43 44 -43 18 -7 -27 37
-34 58 -19 58 5 0 18 8 30 18 11 9 28 22 38 28 25 15 24 78 -2 104 -11 11 -66
40 -123 65 -108 47 -147 58 -96 27z m-570 -692 c3 -5 2 -10 -4 -10 -5 0 -13 5
-16 10 -3 6 -2 10 4 10 5 0 13 -4 16 -10z"/>
<path d="M1180 2000 c0 -5 4 -10 9 -10 6 0 13 5 16 10 3 6 -1 10 -9 10 -9 0
-16 -4 -16 -10z"/>
<path d="M1091 1984 c-99 -26 -211 -88 -211 -115 0 -5 17 3 38 20 31 24 77 44
242 104 32 12 -15 6 -69 -9z"/>
<path d="M1826 1943 c-20 -11 -25 -17 -16 -23 7 -5 20 0 32 12 26 26 20 30
-16 11z"/>
<path d="M1724 1938 c-16 -4 -37 -5 -46 -2 -28 9 -21 -6 37 -81 89 -114 95
-123 95 -134 0 -6 5 -11 10 -11 6 0 10 2 10 5 0 9 -110 164 -121 170 -16 10
-10 25 13 34 17 6 29 1 54 -23 39 -38 94 -71 94 -57 0 6 -13 17 -29 25 -15 8
-41 30 -58 49 -25 29 -33 32 -59 25z"/>
<path d="M1577 1874 c-12 -12 44 -104 64 -104 4 0 -1 17 -11 38 -11 20 -21 45
-24 55 -5 17 -18 22 -29 11z"/>
<path d="M850 1823 c-19 -13 -52 -31 -72 -40 -21 -8 -38 -19 -38 -24 0 -5 10
-4 23 1 46 18 77 35 77 43 0 4 6 7 14 7 14 0 42 27 35 34 -2 2 -20 -7 -39 -21z"/>
<path d="M900 1829 c0 -12 8 -23 20 -26 11 -3 20 -14 20 -24 0 -11 7 -19 15
-19 8 0 19 -10 26 -21 9 -18 17 -20 51 -15 46 8 44 -4 -10 -49 -45 -38 -61
-74 -67 -149 -3 -36 -10 -77 -15 -91 -6 -15 -10 -37 -10 -50 0 -43 -48 -79
-132 -99 -43 -10 -78 -22 -78 -27 0 -10 50 -2 105 18 22 8 47 15 55 15 8 0 26
15 40 33 14 18 29 31 34 27 5 -3 6 1 1 8 -4 7 -2 16 6 21 11 7 11 9 1 9 -9 0
-2 15 17 42 34 46 33 62 -1 32 -21 -19 -21 -19 -13 1 4 11 9 42 10 69 2 40 7
54 29 71 30 24 35 40 9 31 -10 -4 -2 7 17 24 43 37 70 54 70 42 0 -17 50 -60
77 -67 15 -3 46 -26 68 -51 31 -33 47 -43 60 -38 11 5 16 3 12 -2 -3 -6 3 -15
13 -22 15 -9 19 -8 24 4 3 9 6 17 6 18 0 2 -22 14 -50 27 -27 13 -50 28 -50
33 0 12 -32 35 -48 36 -21 0 -72 42 -93 77 -17 27 -27 33 -54 33 -52 0 -79 14
-108 59 -29 44 -57 54 -57 20z"/>
<path d="M1376 1834 c-4 -10 -1 -14 6 -12 15 5 23 28 10 28 -5 0 -13 -7 -16
-16z"/>
<path d="M1485 1767 c-4 -10 -5 -21 -1 -24 10 -10 18 4 13 24 -4 17 -4 17 -12
0z"/>
<path d="M664 1724 c-67 -40 -88 -58 -115 -95 -19 -27 -39 -136 -23 -127 5 3
15 0 21 -8 7 -7 9 -15 4 -18 -11 -7 20 -91 42 -113 11 -11 17 -13 17 -5 0 7
-4 12 -10 12 -5 0 -10 9 -10 21 0 29 -31 121 -47 140 -31 36 51 145 143 190
24 11 44 25 44 30 0 13 0 13 -66 -27z"/>
<path d="M890 1742 c-14 -9 -34 -25 -45 -34 -11 -9 -31 -26 -45 -37 -14 -10
-22 -23 -17 -27 4 -4 16 2 27 13 10 12 39 36 64 54 25 18 46 36 46 41 0 11 -1
11 -30 -10z"/>
<path d="M1268 1708 c-25 -39 -28 -68 -6 -68 5 0 6 5 3 10 -4 6 5 31 19 55 31
57 20 59 -16 3z"/>
<path d="M1570 1740 c0 -5 5 -10 10 -10 6 0 10 5 10 10 0 6 -4 10 -10 10 -5 0
-10 -4 -10 -10z"/>
<path d="M1580 1710 c0 -5 5 -10 10 -10 6 0 10 5 10 10 0 6 -4 10 -10 10 -5 0
-10 -4 -10 -10z"/>
<path d="M1820 1689 c0 -5 5 -7 10 -4 6 3 10 8 10 11 0 2 -4 4 -10 4 -5 0 -10
-5 -10 -11z"/>
<path d="M1590 1683 c0 -17 19 -37 27 -29 4 5 2 11 -5 13 -6 3 -10 9 -6 14 3
5 0 9 -5 9 -6 0 -11 -3 -11 -7z"/>
<path d="M1460 1666 c0 -16 28 -42 36 -33 7 6 -18 47 -28 47 -5 0 -8 -6 -8
-14z"/>
<path d="M2180 1663 c0 -19 22 -63 32 -63 13 0 10 13 -12 45 -11 17 -20 25
-20 18z"/>
<path d="M1331 1634 c-23 -30 -28 -58 -8 -52 6 3 14 15 15 29 2 13 9 30 14 37
6 6 8 12 5 12 -3 0 -15 -12 -26 -26z"/>
<path d="M1450 1627 c0 -16 -55 -77 -69 -77 -6 0 -11 -5 -11 -11 0 -6 9 -8 22
-4 17 6 20 4 15 -9 -4 -9 -2 -16 4 -16 6 0 9 8 7 18 -2 10 9 33 25 51 27 33
35 61 17 61 -5 0 -10 -6 -10 -13z"/>
<path d="M1610 1632 c0 -5 9 -12 21 -15 13 -3 19 -1 16 6 -5 15 -37 22 -37 9z"/>
<path d="M1967 1607 c-3 -8 2 -29 11 -48 13 -25 18 -29 20 -16 2 10 0 26 -4
35 -4 9 -6 23 -5 30 3 16 -16 16 -22 -1z"/>
<path d="M1082 1594 c-17 -11 -20 -19 -13 -28 6 -7 8 -25 5 -41 l-5 -28 34 29
c40 34 40 44 0 20 -24 -15 -23 -13 6 13 47 41 24 71 -27 35z m48 2 c0 -2 -11
-11 -25 -20 -28 -19 -33 -15 -9 8 14 15 34 22 34 12z"/>
<path d="M1825 1600 c-3 -5 -2 -10 4 -10 5 0 13 5 16 10 3 6 2 10 -4 10 -5 0
-13 -4 -16 -10z"/>
<path d="M1467 1593 c-4 -3 -7 -13 -7 -22 1 -13 3 -13 11 2 11 19 8 33 -4 20z"/>
<path d="M1003 1575 c-3 -9 -3 -18 -1 -21 3 -3 8 4 11 16 6 23 -1 27 -10 5z"/>
<path d="M701 1531 c-23 -44 -26 -61 -11 -61 6 0 10 5 10 11 0 6 7 26 16 45
24 49 10 54 -15 5z"/>
<path d="M907 1536 c-4 -15 -6 -31 -2 -34 10 -10 16 6 13 35 l-3 28 -8 -29z"/>
<path d="M1045 1540 c-3 -5 -4 -10 0 -10 3 0 1 -9 -5 -20 -8 -15 -8 -20 1 -20
8 0 8 -4 0 -14 -9 -11 -10 -20 -1 -36 9 -17 30 -20 30 -4 0 3 -4 2 -10 -1 -16
-10 -12 11 5 25 8 7 15 9 15 5 0 -12 54 36 56 51 4 23 -10 16 -51 -26 -39 -39
-65 -48 -30 -10 12 13 14 20 5 20 -10 0 -10 3 0 15 9 11 9 15 1 15 -7 0 -9 5
-6 10 3 6 4 10 1 10 -3 0 -8 -4 -11 -10z"/>
<path d="M997 1523 c-4 -3 -7 -11 -7 -17 0 -6 5 -5 12 2 6 6 9 14 7 17 -3 3
-9 2 -12 -2z"/>
<path d="M1321 1482 c-6 -12 -11 -27 -11 -34 1 -7 8 0 16 15 9 16 13 31 11 34
-3 2 -10 -4 -16 -15z"/>
<path d="M522 1465 c0 -16 2 -22 5 -12 2 9 2 23 0 30 -3 6 -5 -1 -5 -18z"/>
<path d="M875 1459 c3 -24 1 -29 -12 -25 -12 5 -14 1 -9 -20 5 -20 2 -30 -14
-41 -11 -8 -20 -22 -19 -31 0 -10 3 -12 6 -4 2 6 13 12 23 12 12 0 20 10 24
35 4 20 11 33 15 30 5 -2 8 13 7 35 0 24 -5 40 -13 40 -8 0 -11 -11 -8 -31z"/>
<path d="M1376 1449 c-18 -45 -17 -53 7 -44 16 7 30 65 17 78 -4 5 -15 -11
-24 -34z"/>
<path d="M1596 1475 c-3 -8 -3 -29 1 -46 4 -21 1 -34 -8 -40 -12 -7 -12 -9 0
-9 10 0 11 -3 2 -13 -6 -8 -8 -17 -4 -20 12 -12 23 -7 23 11 0 15 2 15 11 2 7
-11 8 -2 3 30 -4 25 -7 57 -7 73 1 29 -11 36 -21 12z"/>
<path d="M2006 1482 c-3 -5 6 -40 19 -78 17 -49 21 -72 13 -81 -7 -9 -7 -13 0
-13 19 0 21 31 6 78 -9 26 -16 57 -16 70 -1 24 -13 38 -22 24z"/>
<path d="M900 1460 c0 -5 5 -10 11 -10 5 0 7 5 4 10 -3 6 -8 10 -11 10 -2 0
-4 -4 -4 -10z"/>
<path d="M1092 1440 c-18 -24 -19 -30 -7 -30 8 0 15 7 15 15 0 9 6 12 15 8 14
-5 14 -8 -2 -26 -18 -19 -18 -20 5 -6 25 16 25 16 9 47 l-13 22 -22 -30z"/>
<path d="M2100 1420 c-13 -25 12 -65 64 -105 36 -27 46 -30 46 -15 0 6 -4 10
-10 10 -19 0 -45 35 -58 77 -15 51 -27 60 -42 33z"/>
<path d="M827 1417 c-4 -10 -7 -26 -7 -35 1 -15 2 -15 11 1 6 10 9 25 7 35 -3
16 -4 15 -11 -1z"/>
<path d="M527 1388 c3 -13 14 -31 24 -41 11 -10 19 -22 19 -26 0 -5 15 -20 33
-33 36 -28 97 -46 97 -29 0 5 -15 13 -34 16 -41 8 -107 70 -120 113 -4 12 -11
22 -16 22 -4 0 -6 -10 -3 -22z"/>
<path d="M794 1387 c-2 -7 0 -24 5 -38 9 -22 10 -21 10 14 1 37 -5 48 -15 24z"/>
<path d="M1055 1389 c-9 -14 -2 -20 14 -10 8 6 9 11 3 15 -6 3 -14 1 -17 -5z"/>
<path d="M1115 1380 c-4 -6 -11 -7 -17 -4 -7 4 -8 2 -4 -4 4 -7 2 -20 -3 -29
-10 -17 -10 -17 -11 2 0 16 -2 17 -12 6 -11 -11 -10 -14 0 -18 6 -3 9 -10 5
-16 -3 -7 3 -3 15 7 22 19 32 10 11 -11 -8 -8 -8 -16 0 -30 8 -14 11 -15 12
-3 1 8 1 17 1 21 0 3 9 11 20 18 18 11 20 11 14 -4 -5 -15 -4 -16 9 -5 12 10
13 15 4 20 -6 4 -9 12 -5 18 3 6 1 14 -5 18 -14 8 -29 -14 -22 -35 3 -11 1
-11 -7 2 -9 15 -8 22 6 38 9 10 12 19 6 19 -6 0 -14 -5 -17 -10z"/>
<path d="M660 1335 c0 -25 5 -45 10 -45 6 0 10 20 10 45 0 25 -4 45 -10 45 -5
0 -10 -20 -10 -45z"/>
<path d="M733 1354 c-56 -24 -51 -52 7 -39 22 5 30 12 30 28 0 18 2 19 11 7 9
-12 10 -12 7 -1 -6 20 -18 21 -55 5z"/>
<path d="M926 1305 c-9 -26 -7 -32 5 -12 6 10 9 21 6 23 -2 3 -7 -2 -11 -11z"/>
<path d="M2054 1297 c-8 -18 -7 -26 3 -36 7 -6 18 -9 23 -6 6 3 10 1 10 -4 0
-6 7 -11 15 -11 20 0 19 13 -5 41 -16 20 -19 21 -20 7 0 -10 -5 -18 -10 -18
-6 0 -8 11 -4 25 8 31 2 32 -12 2z"/>
<path d="M1156 1293 c-10 -10 -7 -25 4 -18 6 3 10 2 10 -4 0 -5 -4 -13 -10
-16 -5 -3 -10 -1 -10 5 0 6 -4 8 -10 5 -6 -4 -7 1 -3 12 5 15 3 16 -7 6 -11
-10 -8 -17 14 -38 16 -14 29 -25 30 -23 1 2 7 10 14 19 10 13 8 20 -7 37 -10
12 -21 19 -25 15z"/>
<path d="M884 1245 c9 -14 14 -30 11 -35 -3 -5 10 -9 30 -8 39 1 48 15 13 20
-13 2 -27 13 -33 26 -5 12 -16 22 -24 22 -10 0 -10 -5 3 -25z"/>
<path d="M920 1255 c0 -8 5 -15 10 -15 6 0 10 7 10 15 0 8 -4 15 -10 15 -5 0
-10 -7 -10 -15z"/>
<path d="M1196 1232 c-3 -6 1 -13 10 -16 23 -9 28 -2 10 13 -8 7 -17 8 -20 3z"/>
<path d="M970 1210 c0 -5 14 -10 32 -10 33 0 109 -43 145 -82 11 -13 37 -54
58 -93 32 -59 38 -79 37 -128 0 -33 3 -55 9 -52 5 4 9 15 9 26 0 10 5 19 10
19 13 0 13 -16 0 -41 -6 -10 -7 -19 -2 -19 16 0 31 25 27 45 -2 11 -4 30 -4
41 -1 12 -13 35 -28 52 -16 16 -41 56 -57 87 -42 82 -147 165 -208 165 -16 0
-28 -4 -28 -10z m310 -277 c0 -5 -5 -15 -10 -23 -8 -12 -10 -11 -10 8 0 12 5
22 10 22 6 0 10 -3 10 -7z"/>
<path d="M1514 1050 c0 -96 2 -136 3 -87 2 48 2 126 0 175 -1 48 -3 8 -3 -88z"/>
<path d="M2053 1209 c-63 -12 -123 -52 -166 -109 -40 -53 -72 -118 -63 -127 3
-3 12 11 20 31 17 40 78 123 104 141 47 33 95 55 127 57 20 1 39 6 41 10 6 9
-6 9 -63 -3z"/>
<path d="M828 1198 c-43 -15 -33 -27 12 -16 22 6 40 14 40 19 0 11 -17 10 -52
-3z"/>
<path d="M760 1175 c-7 -8 -8 -15 -2 -15 5 0 15 7 22 15 7 8 8 15 2 15 -5 0
-15 -7 -22 -15z"/>
<path d="M2073 1182 c-8 -5 -8 -12 2 -26 8 -10 19 -15 25 -11 9 6 9 10 -1 16
-10 6 -8 9 9 9 23 0 28 -10 12 -26 -6 -6 -3 -10 9 -10 11 0 18 3 15 7 -2 4 5
5 16 2 30 -8 25 20 -7 35 -30 13 -62 15 -80 4z"/>
<path d="M725 1170 c3 -5 8 -10 11 -10 2 0 4 5 4 10 0 6 -5 10 -11 10 -5 0 -7
-4 -4 -10z"/>
<path d="M583 1160 c-13 -5 -23 -14 -23 -20 0 -13 17 -13 22 0 6 18 90 20 136
5 24 -9 66 -33 95 -54 29 -21 62 -42 74 -45 11 -4 32 -21 46 -39 13 -18 39
-47 56 -64 17 -18 31 -37 31 -43 0 -5 5 -10 10 -10 18 0 10 18 -22 53 -36 39
-52 61 -69 94 -10 19 -51 39 -71 35 -3 -1 -12 6 -20 15 -7 9 -8 14 -2 10 7 -4
14 -1 17 7 3 8 15 16 27 18 28 4 30 22 3 26 -17 2 -23 -2 -23 -14 0 -14 -3
-15 -12 -6 -7 7 -16 12 -22 12 -5 0 -1 -7 10 -15 24 -18 10 -19 -24 -1 -81 40
-187 57 -239 36z"/>
<path d="M920 1160 c0 -5 5 -10 10 -10 6 0 10 5 10 10 0 6 -4 10 -10 10 -5 0
-10 -4 -10 -10z"/>
<path d="M1025 1130 c-3 -5 1 -10 9 -10 9 0 16 5 16 10 0 6 -4 10 -9 10 -6 0
-13 -4 -16 -10z"/>
<path d="M2173 1133 c-27 -10 -12 -24 18 -18 31 7 32 7 15 -16 -9 -13 -16 -30
-16 -38 0 -11 5 -8 16 7 8 12 26 22 40 22 13 0 24 5 24 10 0 6 -9 10 -20 10
-11 0 -23 7 -26 15 -6 15 -27 18 -51 8z"/>
<path d="M490 1114 c-19 -8 -42 -23 -50 -32 -35 -37 -72 -193 -50 -207 6 -3
10 -19 10 -36 0 -16 5 -29 11 -29 5 0 9 -8 7 -17 -1 -10 12 -39 30 -65 17 -26
32 -53 32 -61 0 -8 9 -22 20 -32 11 -10 20 -23 20 -28 0 -6 7 -17 15 -26 8 -9
26 -29 40 -45 14 -16 28 -26 32 -22 4 3 -3 13 -15 22 -12 8 -22 22 -22 30 0 8
-9 22 -20 31 -14 12 -20 30 -20 56 0 22 -4 36 -10 32 -5 -3 -7 -12 -3 -20 3
-8 1 -15 -5 -15 -16 0 -43 86 -36 114 4 16 2 26 -5 26 -6 0 -11 -7 -11 -16 0
-25 -25 -10 -28 17 -2 13 -8 28 -13 34 -5 5 -9 21 -9 36 0 15 -5 29 -11 31 -9
3 -9 10 0 26 7 13 9 32 6 43 -7 19 23 88 48 114 16 15 53 35 66 35 6 0 11 -11
11 -25 0 -14 4 -25 8 -25 5 0 8 16 8 35 -1 39 -6 41 -56 19z"/>
<path d="M999 1108 c-8 -31 -8 -98 1 -103 8 -5 10 6 7 39 -2 25 0 46 5 46 4 0
8 5 8 10 0 8 -19 15 -21 8z"/>
<path d="M2371 1067 c-6 -6 -11 -8 -11 -4 0 4 -9 3 -20 -3 -27 -15 -25 -29 3
-26 26 3 87 28 87 36 0 10 -48 8 -59 -3z"/>
<path d="M590 1049 c0 -5 4 -8 9 -5 4 3 22 1 39 -4 18 -4 34 -5 37 0 2 4 -9
10 -26 14 -45 9 -59 8 -59 -5z"/>
<path d="M797 1053 c-4 -3 -7 -11 -7 -16 0 -6 3 -7 6 -4 4 3 16 2 26 -4 15 -8
19 -8 16 1 -2 6 -7 11 -12 10 -5 -1 -12 3 -16 9 -3 6 -9 8 -13 4z"/>
<path d="M695 1040 c-3 -5 9 -16 26 -24 37 -19 39 -19 39 -7 0 13 -59 41 -65
31z"/>
<path d="M1900 1043 c1 -13 40 -56 46 -50 7 7 -25 57 -37 57 -5 0 -9 -3 -9 -7z"/>
<path d="M521 1011 c-31 -43 -25 -50 9 -13 32 36 35 42 21 42 -5 0 -19 -13
-30 -29z"/>
<path d="M770 1002 c0 -11 88 -92 101 -92 14 0 87 -156 93 -203 6 -39 3 -54
-13 -81 -39 -63 -46 -64 -95 -9 -98 109 -156 188 -236 325 -19 31 -36 55 -38
53 -5 -5 99 -182 137 -235 45 -61 144 -174 175 -200 16 -14 39 -34 50 -46 12
-11 30 -24 41 -28 13 -6 16 -10 7 -13 -7 -3 -19 1 -27 7 -9 7 -29 14 -47 16
l-31 4 19 -23 c28 -32 35 -36 53 -27 9 5 30 14 48 20 18 7 38 18 44 26 9 12 6
13 -19 8 -29 -6 -41 -1 -110 44 -10 7 -4 18 22 44 36 36 41 53 36 123 -2 33
-75 195 -88 195 -4 0 -34 23 -65 51 -31 28 -57 46 -57 41z m180 -527 c14 -16
10 -18 -14 -9 -9 3 -16 10 -16 15 0 14 16 11 30 -6z"/>
<path d="M1193 972 c0 -10 7 -19 13 -19 9 0 10 5 3 19 -5 10 -12 18 -14 18 -2
0 -3 -8 -2 -18z"/>
<path d="M1854 956 c2 -27 -1 -35 -11 -32 -7 3 -13 -1 -13 -10 0 -11 6 -14 23
-9 20 6 21 5 5 -8 -25 -20 -22 -27 10 -23 15 2 20 1 12 -1 -8 -3 -19 -8 -23
-13 -11 -10 31 -92 43 -85 5 3 7 0 4 -8 -3 -8 -1 -18 5 -22 7 -4 11 4 11 19 0
19 4 24 16 19 11 -4 12 -9 5 -16 -14 -14 -14 -50 0 -45 19 6 39 79 28 100 -8
15 -5 23 13 38 20 17 21 19 5 20 -10 0 -20 -7 -23 -15 -4 -8 -16 -15 -27 -15
-20 0 -21 0 -1 16 19 15 18 15 -4 11 -17 -4 -23 0 -28 18 -3 13 -15 25 -26 28
-16 5 -18 9 -9 25 8 15 7 23 -4 32 -12 10 -14 6 -11 -24z m56 -104 c0 -4 -12
-9 -27 -10 -22 -1 -24 0 -13 8 18 12 40 13 40 2z m32 -18 c13 -12 -5 -40 -28
-42 -30 -2 -31 6 -1 18 21 8 20 9 -8 10 -26 1 -27 3 -10 10 24 10 40 12 47 4z"/>
<path d="M2191 974 c-21 -24 -5 -28 20 -5 16 14 18 21 8 21 -8 -1 -20 -8 -28
-16z"/>
<path d="M1952 968 c2 -6 10 -14 16 -16 7 -2 10 2 6 12 -7 18 -28 22 -22 4z"/>
<path d="M2350 966 c-61 -20 -91 -39 -142 -93 -12 -13 -28 -23 -36 -23 -8 0
-12 -6 -8 -15 3 -8 1 -15 -3 -15 -5 0 -19 -17 -31 -37 -16 -28 -22 -54 -22
-98 0 -121 11 -134 116 -142 46 -4 76 -2 76 4 0 5 -26 9 -57 9 -104 0 -104 4
-2 99 90 83 184 194 172 205 -3 3 -13 -6 -22 -20 -47 -71 -246 -268 -259 -256
-10 11 -11 176 -1 176 5 0 15 12 23 28 18 34 76 96 99 105 9 3 17 11 17 17 0
5 5 10 12 10 6 0 19 7 28 15 10 9 45 21 78 27 59 11 62 11 97 -16 20 -16 34
-34 31 -41 -2 -7 -2 -16 2 -20 16 -16 8 -82 -14 -125 -30 -58 -95 -136 -144
-174 -22 -16 -37 -32 -35 -34 10 -10 82 50 124 103 71 89 94 134 92 185 -2 64
-7 80 -36 110 -24 25 -36 30 -74 29 -25 -1 -62 -6 -81 -13z"/>
<path d="M480 950 c0 -5 5 -10 11 -10 6 0 9 -6 6 -14 -12 -32 52 -226 74 -226
4 0 21 -13 37 -30 17 -16 37 -30 45 -30 9 0 26 -12 39 -28 27 -32 88 -60 141
-66 57 -5 44 9 -21 22 -41 8 -71 22 -99 47 -23 19 -46 35 -52 35 -6 0 -27 16
-45 35 -19 19 -39 35 -45 35 -5 0 -13 16 -17 35 -3 19 -9 35 -13 35 -12 0 -34
126 -26 149 5 17 2 21 -14 21 -12 0 -21 -4 -21 -10z"/>
<path d="M1807 945 c-4 -8 -2 -17 3 -20 6 -4 10 3 10 14 0 25 -6 27 -13 6z"/>
<path d="M1753 915 c-18 -22 -33 -45 -33 -52 0 -7 -4 -13 -10 -13 -10 0 -42
-56 -38 -67 4 -10 35 -11 49 -2 6 4 8 12 4 18 -5 9 -11 9 -22 -1 -13 -10 -12
-6 2 22 16 29 20 32 23 15 7 -43 14 -51 22 -30 13 31 11 45 -5 45 -14 0 -14 3
0 30 9 17 20 30 26 30 6 0 6 -6 -1 -19 -14 -28 -13 -33 9 -26 12 3 21 0 25
-10 3 -9 2 -13 -4 -10 -6 3 -10 -3 -10 -14 0 -11 5 -23 10 -26 6 -3 10 -1 10
5 0 7 7 10 15 6 8 -3 15 -1 15 4 0 6 -4 10 -9 10 -5 0 -11 18 -15 40 -3 22
-10 40 -15 40 -5 0 -11 10 -13 22 -3 21 -6 19 -35 -17z"/>
<path d="M2080 940 c-8 -5 -11 -12 -7 -16 4 -4 13 -2 19 4 15 15 7 24 -12 12z"/>
<path d="M1195 923 c-3 -9 0 -20 7 -24 10 -6 8 -12 -7 -23 -15 -12 -16 -16 -5
-16 12 -1 12 -3 -3 -14 -11 -9 -15 -20 -10 -31 4 -13 3 -16 -5 -11 -7 4 -12 2
-12 -6 0 -7 -7 -2 -16 10 -15 21 -34 22 -34 1 0 -6 4 -7 10 -4 5 3 8 0 5 -7
-3 -7 -1 -19 3 -25 13 -21 62 7 62 35 0 12 4 22 9 22 7 0 31 73 31 93 0 14
-29 13 -35 0z"/>
<path d="M1917 916 c-4 -10 -3 -15 3 -11 6 3 10 1 10 -6 0 -7 3 -10 6 -6 3 3
2 13 -4 22 -8 16 -9 16 -15 1z"/>
<path d="M2597 912 c-19 -21 -22 -32 -7 -32 10 0 34 39 27 46 -2 2 -11 -4 -20
-14z"/>
<path d="M1160 890 c0 -13 5 -20 13 -17 6 2 12 10 12 17 0 7 -6 15 -12 18 -8
2 -13 -5 -13 -18z"/>
<path d="M2047 888 c-8 -12 -18 -38 -22 -55 -4 -18 -10 -33 -13 -33 -11 0 -43
-78 -57 -137 -11 -44 -11 -59 2 -95 16 -48 39 -78 60 -78 7 0 16 -7 19 -15 4
-8 10 -15 15 -15 4 0 6 6 3 13 -3 8 12 22 36 36 23 13 40 24 38 26 -6 6 -78
-20 -78 -27 0 -15 -36 -8 -52 11 -22 26 -40 115 -28 145 5 13 7 26 4 29 -3 2
7 24 21 48 14 24 28 52 32 62 3 9 10 17 15 17 5 0 8 6 7 13 -1 6 3 25 10 41
15 36 7 45 -12 14z"/>
<path d="M1030 871 c0 -6 4 -11 9 -11 5 0 14 -13 21 -30 11 -27 31 -42 29 -22
-3 30 -59 91 -59 63z"/>
<path d="M1136 865 c-3 -9 -1 -25 4 -36 14 -25 23 -24 15 2 -5 15 -4 19 4 15
16 -10 14 9 -3 23 -11 9 -15 8 -20 -4z"/>
<path d="M1990 841 c0 -6 5 -13 10 -16 6 -3 10 1 10 9 0 9 -4 16 -10 16 -5 0
-10 -4 -10 -9z"/>
<path d="M2591 824 c-24 -30 -24 -33 -11 -54 7 -12 10 -11 15 5 4 11 11 31 16
44 14 34 5 36 -20 5z"/>
<path d="M1227 809 c-19 -26 -14 -38 8 -19 10 8 15 9 15 1 0 -15 32 -51 46
-51 7 0 15 7 18 16 4 11 1 14 -12 10 -13 -5 -24 4 -39 30 l-20 36 -16 -23z"/>
<path d="M1302 808 c-16 -16 -15 -25 3 -25 16 0 28 24 16 31 -4 3 -13 0 -19
-6z"/>
<path d="M1760 810 c0 -5 5 -10 10 -10 6 0 10 5 10 10 0 6 -4 10 -10 10 -5 0
-10 -4 -10 -10z"/>
<path d="M1033 783 c9 -9 19 -14 23 -11 10 10 -6 28 -24 28 -15 0 -15 -1 1
-17z"/>
<path d="M1520 786 c0 -8 5 -18 10 -21 6 -3 10 1 10 9 0 8 -4 18 -10 21 -5 3
-10 -1 -10 -9z"/>
<path d="M1816 791 c-3 -4 -23 -11 -43 -15 -41 -6 -71 -21 -62 -30 3 -3 30 3
60 14 67 25 66 25 73 -6 4 -14 11 -31 17 -37 5 -7 24 -31 41 -55 46 -64 45
-44 -2 26 -22 34 -40 67 -40 75 0 25 -33 47 -44 28z"/>
<path d="M1086 765 c4 -16 9 -34 12 -40 11 -18 10 -50 -3 -102 -7 -29 -9 -53
-4 -53 5 0 12 12 15 28 4 15 9 31 12 37 3 5 5 27 3 49 -1 21 2 42 8 45 7 5 0
18 -20 37 l-31 29 8 -30z"/>
<path d="M1335 770 c-3 -5 -1 -10 4 -10 6 0 11 5 11 10 0 6 -2 10 -4 10 -3 0
-8 -4 -11 -10z"/>
<path d="M1195 745 c-10 -17 -30 -42 -44 -57 -25 -28 -19 -38 9 -15 26 20 62
76 58 89 -3 7 -13 -1 -23 -17z"/>
<path d="M1050 730 c25 -35 46 -41 28 -7 -14 24 -28 37 -41 37 -5 0 1 -13 13
-30z"/>
<path d="M1325 740 c3 -5 10 -10 16 -10 5 0 9 5 9 10 0 6 -7 10 -16 10 -8 0
-12 -4 -9 -10z"/>
<path d="M1369 737 c6 -6 28 -12 48 -14 46 -3 30 13 -21 20 -30 5 -37 4 -27
-6z"/>
<path d="M1586 735 c-26 -7 -53 -12 -60 -10 -6 2 -24 6 -41 10 -23 5 -27 4
-18 -6 16 -16 75 -20 131 -8 26 6 55 10 64 10 10 0 20 4 23 10 8 13 -41 10
-99 -6z"/>
<path d="M2517 681 c-10 -10 -22 -31 -26 -47 -5 -16 -12 -38 -16 -49 -6 -16
-3 -15 14 5 11 14 21 32 21 39 0 8 12 28 27 43 17 18 22 28 12 27 -8 0 -22 -8
-32 -18z"/>
<path d="M541 634 c0 -11 3 -14 6 -6 3 7 2 16 -1 19 -3 4 -6 -2 -5 -13z"/>
<path d="M2518 603 c-19 -32 -86 -102 -114 -120 -34 -23 -69 -40 -91 -47 -16
-5 -23 -2 -28 14 -3 11 -11 20 -17 20 -5 0 -7 -8 -4 -17 5 -15 3 -14 -10 2
-15 20 -16 20 -12 0 2 -10 14 -22 28 -26 20 -6 18 -7 -15 -8 -22 0 -57 6 -77
13 -21 8 -38 10 -38 5 0 -11 36 -30 43 -22 4 3 12 2 19 -4 43 -32 188 28 267
109 49 50 88 108 74 108 -5 0 -16 -12 -25 -27z"/>
<path d="M2024 568 c3 -13 6 -30 6 -37 0 -11 3 -12 11 -4 12 12 2 63 -13 63
-6 0 -8 -10 -4 -22z"/>
<path d="M2000 561 c0 -11 4 -22 9 -25 4 -3 6 6 3 19 -5 30 -12 33 -12 6z"/>
<path d="M640 555 c0 -17 17 -38 27 -32 5 3 15 -4 22 -16 10 -16 10 -19 1 -10
-7 6 -18 9 -25 7 -7 -3 -16 -1 -20 5 -3 6 -12 11 -18 11 -19 -1 33 -40 52 -40
10 0 21 -3 24 -6 4 -4 25 -8 48 -10 23 -3 62 -11 86 -19 31 -11 50 -12 61 -5
15 8 14 9 -5 10 -30 0 -32 1 -71 17 -18 7 -37 11 -42 8 -5 -3 -24 10 -41 30
-18 20 -34 33 -37 30 -3 -3 5 -16 18 -30 19 -21 21 -25 7 -25 -9 0 -17 6 -17
13 0 8 -9 22 -20 32 -11 10 -20 14 -20 10 0 -5 -7 0 -15 11 -8 10 -14 15 -15
9z"/>
<path d="M2150 487 c0 -7 7 -22 16 -33 14 -17 15 -17 10 -1 -3 10 -6 25 -6 33
0 8 -4 14 -10 14 -5 0 -10 -6 -10 -13z"/>
<path d="M2180 492 c0 -16 38 -58 46 -50 4 4 -5 20 -19 34 -15 15 -27 22 -27
16z"/>
<path d="M2070 473 c0 -10 34 -32 49 -33 10 0 11 3 2 14 -12 14 -51 29 -51 19z"/>
<path d="M2290 458 c0 -9 36 -5 46 5 4 4 -5 6 -19 5 -15 -1 -27 -6 -27 -10z"/>
</g>
</svg>
